<svg xmlns="http://www.w3.org/2000/svg" viewBox="0 0 800 600">
  <rect width="800" height="600" fill="#FAF7F1"/>
  <ellipse cx="560" cy="120" rx="170" ry="62" fill="#EFEAE0"/>
  <ellipse cx="430" cy="145" rx="120" ry="50" fill="#EFEAE0"/>
  <g fill="#8B5CF6">
    <rect x="90" y="90" width="10" height="44" rx="5"/>
    <rect x="170" y="180" width="10" height="44" rx="5"/>
    <rect x="250" y="80" width="10" height="44" rx="5"/>
    <rect x="650" y="210" width="10" height="44" rx="5"/>
    <rect x="724" y="120" width="10" height="44" rx="5"/>
    <rect x="120" y="270" width="10" height="44" rx="5"/>
    <rect x="694" y="310" width="10" height="44" rx="5"/>
    <rect x="60" y="390" width="10" height="44" rx="5"/>
  </g>
  <rect y="470" width="800" height="130" fill="#EFEAE0"/>
  <ellipse cx="400" cy="502" rx="210" ry="30" fill="#DED8CB"/>
  <circle cx="290" cy="235" r="56" fill="#D97706"/>
  <circle cx="510" cy="235" r="56" fill="#D97706"/>
  <circle cx="290" cy="235" r="26" fill="#FAF7F1"/>
  <circle cx="510" cy="235" r="26" fill="#FAF7F1"/>
  <circle cx="400" cy="330" r="150" fill="#D97706"/>
  <ellipse cx="400" cy="385" rx="72" ry="54" fill="#FAF7F1"/>
  <ellipse cx="400" cy="360" rx="24" ry="18" fill="#111827"/>
  <circle cx="342" cy="305" r="13" fill="#111827"/>
  <circle cx="458" cy="305" r="13" fill="#111827"/>
  <rect x="392" y="398" width="16" height="24" rx="8" fill="#111827"/>
</svg>
